<svg xmlns="http://www.w3.org/2000/svg" viewBox="0 0 430 430">
  <defs>
    <style>
      .cls-1 {
        isolation: isolate;
      }

      .cls-2 {
        fill: #646e78;
      }

      .cls-3, .cls-4 {
        fill: #4bb3fd;
      }

      .cls-4 {
        mix-blend-mode: multiply;
        opacity: 0.5;
      }

      .cls-5 {
        fill: #ebe6ef;
      }
    </style>
  </defs>
  <g class="cls-1">
    <g id="Warstwa_1" data-name="Warstwa 1">
      <g>
        <path class="cls-2" d="M235.89,70.22H316a3,3,0,0,1,3,3v78.12a0,0,0,0,1,0,0H232.89a0,0,0,0,1,0,0V73.22A3,3,0,0,1,235.89,70.22Z" transform="translate(90.44 -121.62) rotate(29.53)"/>
        <path class="cls-3" d="M135,129.67H252.41a7.54,7.54,0,0,1,7.54,7.54V316.5a65.79,65.79,0,0,1-65.79,65.79h-.87a65.79,65.79,0,0,1-65.79-65.79V137.21A7.54,7.54,0,0,1,135,129.67Z" transform="translate(151.32 -62.23) rotate(29.53)"/>
        <path class="cls-4" d="M307.61,189.15,221.45,341.27a65.78,65.78,0,0,1-89.67,24.82l-.75-.43A65.77,65.77,0,0,1,106.21,276l1.71-3c4.51,24.16,7.55,59.07,37.51,71.61C206.8,370.25,303.22,196.49,307.61,189.15Z"/>
        <circle class="cls-5" cx="161.24" cy="313.33" r="22.11"/>
        <path class="cls-5" d="M278.64,109.5a3.49,3.49,0,0,1-3.05-5.22l17.29-30.52A3.5,3.5,0,0,1,299,77.21l-17.29,30.52A3.5,3.5,0,0,1,278.64,109.5Z"/>
      </g>
    </g>
  </g>
</svg>
